<svg width="246" height="132" viewBox="0 0 246 132" fill="none" xmlns="http://www.w3.org/2000/svg">
<g id="jabra">
<g id="Clip path group">
<mask id="mask0_289_82" style="mask-type:luminance" maskUnits="userSpaceOnUse" x="21" y="31" width="204" height="70">
<g id="clip0_1_421">
<path id="Vector" d="M224.839 31.6802H21.1613V100.32H224.839V31.6802Z" fill="white"/>
</g>
</mask>
<g mask="url(#mask0_289_82)">
<g id="Group">
<path id="Vector_2" d="M83.1238 63.9562C78.381 63.9562 78.381 65.068 78.381 65.5913V66.4906C78.381 66.9566 78.381 68.0684 83.1238 68.0684C87.8667 68.0684 87.8667 66.9566 87.8667 66.4906V65.5913C87.8171 65.0598 87.8171 63.9562 83.1238 63.9562ZM111.994 66.4088V59.2472C111.994 58.7813 111.994 57.6694 107.251 57.6694C102.508 57.6694 102.508 58.7813 102.508 59.2472V66.4088C102.508 66.8749 102.508 67.9867 107.251 67.9867C111.994 67.9867 111.994 66.8993 111.994 66.4251V66.4088ZM143.492 68.0438C148.235 68.0438 148.235 66.932 148.235 66.466V65.5667C148.235 65.1008 148.235 63.9316 143.492 63.9316C138.749 63.9316 138.749 65.0435 138.749 65.5667V66.466C138.749 66.9402 138.749 68.0438 143.492 68.0438Z" fill="#FFD100"/>
<path id="Vector_3" d="M220.501 31.6641H25.4992C24.9268 31.662 24.3596 31.7719 23.8303 31.9876C23.301 32.2034 22.8201 32.5206 22.4152 32.9213C22.0105 33.3217 21.6898 33.7975 21.4718 34.3213C21.2537 34.8449 21.1426 35.4062 21.1448 35.9724V95.9957C21.1381 96.5648 21.2461 97.1296 21.4622 97.6571C21.6783 98.1846 21.9982 98.6643 22.4035 99.0683C22.8087 99.4722 23.291 99.7925 23.8226 100.01C24.354 100.228 24.924 100.339 25.4992 100.337H220.501C221.073 100.339 221.641 100.229 222.17 100.013C222.699 99.7975 223.18 99.4803 223.585 99.0798C223.99 98.6792 224.31 98.2035 224.528 97.6798C224.746 97.156 224.857 96.5948 224.855 96.0285V35.9888C224.849 34.8466 224.389 33.7529 223.574 32.9436C222.758 32.1344 221.655 31.6748 220.501 31.6641ZM133.618 64.7251C133.618 63.6132 133.618 61.455 143.442 61.455C145.026 61.4455 146.609 61.5164 148.185 61.6676V59.2803C148.185 58.8144 148.185 57.7025 143.442 57.7025C139.088 57.7025 139.088 58.8144 139.088 59.2803C139.091 59.3593 139.076 59.438 139.047 59.5113C139.016 59.5849 138.973 59.6515 138.916 59.7074C138.859 59.7632 138.792 59.8072 138.718 59.8363C138.643 59.8655 138.564 59.8794 138.485 59.8771H134.567C134.488 59.8794 134.409 59.8655 134.335 59.8363C134.26 59.8072 134.193 59.7632 134.136 59.7074C134.079 59.6515 134.036 59.5849 134.007 59.5113C133.976 59.438 133.963 59.3593 133.964 59.2803V58.4629C133.964 57.351 133.964 55.1927 143.442 55.1927C153.266 55.1927 153.266 57.3673 153.266 58.4629V67.284C153.266 68.3959 153.266 70.5541 143.442 70.5541C133.618 70.5541 133.618 68.3795 133.618 67.284V64.7251ZM51.4939 82.8008C51.4951 82.8462 51.4869 82.8913 51.4698 82.9334C51.4527 82.9757 51.4272 83.0139 51.3948 83.046C51.3624 83.0781 51.3237 83.1034 51.2811 83.1202C51.2384 83.1371 51.1929 83.1453 51.147 83.1441H49.6843C49.6386 83.1453 49.5929 83.1371 49.5502 83.1202C49.5076 83.1034 49.469 83.0781 49.4365 83.046C49.4041 83.0139 49.3785 82.9757 49.3615 82.9334C49.3444 82.8913 49.3362 82.8462 49.3374 82.8008V79.22C49.3362 79.1746 49.3444 79.1294 49.3615 79.0872C49.3785 79.0451 49.4041 79.0068 49.4365 78.9746C49.469 78.9425 49.5076 78.9173 49.5502 78.9004C49.5929 78.8835 49.6386 78.8755 49.6843 78.8765H51.1139C51.1598 78.8755 51.2054 78.8835 51.248 78.9004C51.2906 78.9173 51.3294 78.9425 51.3618 78.9746C51.3943 79.0068 51.4198 79.0451 51.4367 79.0872C51.4538 79.1294 51.462 79.1746 51.461 79.22L51.4939 82.8008ZM58.7735 82.7598C58.7735 82.8617 58.7325 82.9596 58.6598 83.0316C58.5869 83.1036 58.4881 83.1441 58.3851 83.1441H56.7325C56.6296 83.1441 56.5308 83.1036 56.4579 83.0316C56.385 82.9596 56.3442 82.8617 56.3442 82.7598V79.22C56.3442 79.1696 56.3542 79.1195 56.3738 79.0729C56.3932 79.0264 56.4218 78.984 56.4579 78.9482C56.494 78.9126 56.5369 78.8843 56.584 78.8649C56.6311 78.8456 56.6816 78.8357 56.7325 78.8357H58.3851C58.4361 78.8357 58.4866 78.8456 58.5337 78.8649C58.5808 78.8843 58.6237 78.9126 58.6598 78.9482C58.6957 78.984 58.7244 79.0264 58.7439 79.0729C58.7634 79.1195 58.7735 79.1696 58.7735 79.22V82.7598ZM66.1026 82.7598C66.1026 82.8104 66.0925 82.8603 66.073 82.9069C66.0535 82.9535 66.0248 82.9959 65.9888 83.0316C65.9527 83.0673 65.9099 83.0955 65.8628 83.1149C65.8157 83.1342 65.7652 83.1441 65.7141 83.1441H63.7725C63.7214 83.1441 63.6709 83.1342 63.6238 83.1149C63.5767 83.0955 63.5339 83.0673 63.4979 83.0316C63.4618 82.9959 63.4332 82.9535 63.4136 82.9069C63.3941 82.8603 63.3841 82.8104 63.3841 82.7598V79.2608C63.3841 79.2104 63.3941 79.1605 63.4136 79.1137C63.4332 79.0671 63.4618 79.0248 63.4979 78.9891C63.5339 78.9535 63.5767 78.9251 63.6238 78.9058C63.6709 78.8866 63.7214 78.8765 63.7725 78.8765H65.7141C65.7652 78.8765 65.8157 78.8866 65.8628 78.9058C65.9099 78.9251 65.9527 78.9535 65.9888 78.9891C66.0248 79.0248 66.0535 79.0671 66.073 79.1137C66.0925 79.1605 66.1026 79.2104 66.1026 79.2608V82.7598ZM68.9862 67.284C68.9862 68.3959 68.9862 70.5541 59.1618 70.5541C49.3374 70.5541 49.3374 68.3795 49.3374 67.284V65.7879C49.335 65.7089 49.3491 65.6303 49.3787 65.5568C49.4082 65.4834 49.4525 65.4168 49.509 65.3609C49.5654 65.305 49.6329 65.2611 49.7071 65.232C49.7813 65.2028 49.8608 65.1889 49.9405 65.1912H53.8654C53.9452 65.1889 54.0246 65.2028 54.0988 65.232C54.173 65.2611 54.2405 65.305 54.297 65.3609C54.3534 65.4168 54.3977 65.4834 54.4272 65.5568C54.4569 65.6303 54.4709 65.7089 54.4685 65.7879V66.5564C54.4685 67.0714 54.642 68.0933 59.2114 68.0933C63.9542 68.0933 63.9542 66.9815 63.9542 66.5155V49.5027C63.9519 49.4236 63.966 49.3451 63.9954 49.2717C64.0249 49.1982 64.0694 49.1315 64.1259 49.0757C64.1823 49.0197 64.2496 48.9759 64.3238 48.9467C64.398 48.9175 64.4775 48.9036 64.5574 48.9058H68.4656C68.5455 48.9036 68.625 48.9175 68.6992 48.9467C68.7734 48.9759 68.8409 49.0197 68.8973 49.0757C68.9538 49.1315 68.9981 49.1982 69.0276 49.2717C69.0571 49.3451 69.0711 49.4236 69.0689 49.5027L68.9862 67.284ZM73.4233 82.7109C73.4233 82.8128 73.3825 82.9104 73.3096 82.9825C73.2367 83.0546 73.1381 83.0951 73.035 83.0951H70.8784C70.7754 83.0951 70.6766 83.0546 70.6039 82.9825C70.531 82.9104 70.4901 82.8128 70.4901 82.7109V79.2118C70.4901 79.1614 70.5002 79.1114 70.5196 79.0648C70.5392 79.0182 70.5677 78.9758 70.6039 78.9402C70.6398 78.9044 70.6827 78.8761 70.7298 78.8567C70.777 78.8375 70.8274 78.8276 70.8784 78.8276H73.035C73.0859 78.8276 73.1365 78.8375 73.1837 78.8567C73.2308 78.8761 73.2735 78.9044 73.3096 78.9402C73.3457 78.9758 73.3743 79.0182 73.3938 79.0648C73.4133 79.1114 73.4233 79.1614 73.4233 79.2118V82.7109ZM80.7028 82.7109C80.7028 82.8236 80.6576 82.9317 80.577 83.0114C80.4965 83.0912 80.3871 83.1359 80.2732 83.1359H77.8605C77.7464 83.1359 77.6372 83.0912 77.5567 83.0114C77.4761 82.9317 77.4308 82.8236 77.4308 82.7109V79.2608C77.4308 79.1481 77.4761 79.0399 77.5567 78.9602C77.6372 78.8805 77.7464 78.8357 77.8605 78.8357H80.2732C80.3871 78.8357 80.4965 78.8805 80.577 78.9602C80.6576 79.0399 80.7028 79.1481 80.7028 79.2608V82.7109ZM73.2663 67.2758V64.7169C73.2663 63.6051 73.2663 61.4469 83.0909 61.4469C84.6744 61.4374 86.2574 61.5082 87.8336 61.6594V59.2722C87.8336 58.8062 87.8336 57.6944 83.0909 57.6944C78.695 57.6944 78.695 58.8062 78.695 59.2722C78.6973 59.3511 78.6832 59.4298 78.6537 59.5032C78.6242 59.5767 78.5799 59.6433 78.5235 59.6992C78.467 59.755 78.3995 59.799 78.3253 59.8281C78.2511 59.8573 78.1717 59.8712 78.0918 59.8689H74.167C74.0871 59.8712 74.0078 59.8573 73.9335 59.8281C73.8593 59.799 73.7919 59.755 73.7355 59.6992C73.679 59.6433 73.6345 59.5767 73.6051 59.5032C73.5756 59.4298 73.5615 59.3511 73.5638 59.2722V58.4547C73.5638 57.3428 73.5638 55.1845 83.0413 55.1845C92.8657 55.1845 92.8657 57.3591 92.8657 58.4547V67.2758C92.8657 68.3877 92.8657 70.5459 83.0413 70.5459C73.2167 70.5459 73.2581 68.3877 73.2581 67.2758H73.2663ZM88.0484 82.7109C88.0484 82.8236 88.0032 82.9317 87.9227 83.0114C87.8421 83.0912 87.7327 83.1359 87.6189 83.1359H84.9913C84.8773 83.1359 84.768 83.0912 84.6874 83.0114C84.6068 82.9317 84.5616 82.8236 84.5616 82.7109V79.3017C84.5616 79.189 84.6068 79.0809 84.6874 79.0011C84.768 78.9214 84.8773 78.8765 84.9913 78.8765H87.6189C87.7327 78.8765 87.8421 78.9214 87.9227 79.0011C88.0032 79.0809 88.0484 79.189 88.0484 79.3017V82.7109ZM95.3775 82.67C95.3754 82.7928 95.3251 82.9102 95.2373 82.9972C95.1494 83.084 95.0309 83.1338 94.9065 83.1359H92.0229C91.8986 83.1338 91.7801 83.084 91.6921 82.9972C91.6043 82.9102 91.5541 82.7928 91.5519 82.67V79.3017C91.5541 79.1788 91.6043 79.0615 91.6921 78.9745C91.7801 78.8876 91.8986 78.8379 92.0229 78.8357H94.9065C95.0309 78.8379 95.1494 78.8876 95.2373 78.9745C95.3251 79.0615 95.3754 79.1788 95.3775 79.3017V82.67ZM97.4432 67.2349V49.4618C97.441 49.3829 97.455 49.3042 97.4845 49.2308C97.514 49.1573 97.5583 49.0906 97.6148 49.0348C97.6713 48.9789 97.7387 48.935 97.8129 48.9058C97.8871 48.8766 97.9666 48.8628 98.0465 48.865H101.971C102.051 48.8628 102.13 48.8766 102.205 48.9058C102.279 48.935 102.346 48.9789 102.403 49.0348C102.459 49.0906 102.504 49.1573 102.533 49.2308C102.563 49.3042 102.577 49.3829 102.574 49.4618V55.3726C104.151 55.2215 105.734 55.1505 107.317 55.16C117.142 55.16 117.142 57.3347 117.142 58.4301V67.2513C117.142 68.3631 117.142 70.5215 107.317 70.5215C97.4929 70.5215 97.4267 68.3468 97.4267 67.2349H97.4432ZM102.657 82.67C102.655 82.7928 102.605 82.9102 102.517 82.9972C102.429 83.084 102.31 83.1338 102.186 83.1359H99.038C98.9137 83.1338 98.7952 83.084 98.7072 82.9972C98.6194 82.9102 98.5692 82.7928 98.5669 82.67V79.3017C98.5692 79.1788 98.6194 79.0615 98.7072 78.9745C98.7952 78.8876 98.9137 78.8379 99.038 78.8357H102.137C102.261 78.8379 102.379 78.8876 102.467 78.9745C102.555 79.0615 102.605 79.1788 102.608 79.3017L102.657 82.67ZM109.986 82.629C109.984 82.7521 109.934 82.8693 109.846 82.9563C109.758 83.0432 109.639 83.093 109.515 83.0951H106.152C106.028 83.093 105.909 83.0432 105.822 82.9563C105.734 82.8693 105.683 82.7521 105.681 82.629V79.3017C105.683 79.1788 105.734 79.0615 105.822 78.9745C105.909 78.8876 106.028 78.8379 106.152 78.8357H109.515C109.639 78.8379 109.758 78.8876 109.846 78.9745C109.934 79.0615 109.984 79.1788 109.986 79.3017V82.629ZM117.315 82.629C117.319 82.6977 117.308 82.7662 117.283 82.8302C117.258 82.8943 117.22 82.9526 117.171 83.0011C117.122 83.0496 117.063 83.0875 116.998 83.1121C116.933 83.1367 116.864 83.1477 116.795 83.1441H113.217C113.148 83.1477 113.078 83.1367 113.014 83.1121C112.949 83.0875 112.89 83.0496 112.841 83.0011C112.792 82.9526 112.754 82.8943 112.729 82.8302C112.704 82.7662 112.693 82.6977 112.696 82.629V79.359C112.693 79.2904 112.704 79.2218 112.729 79.1577C112.754 79.0937 112.792 79.0355 112.841 78.9869C112.89 78.9384 112.949 78.9006 113.014 78.8759C113.078 78.8513 113.148 78.8404 113.217 78.8439H116.795C116.864 78.8404 116.933 78.8513 116.998 78.8759C117.063 78.9006 117.122 78.9384 117.171 78.9869C117.22 79.0355 117.258 79.0937 117.283 79.1577C117.308 79.2218 117.319 79.2904 117.315 79.359V82.629ZM124.644 82.629C124.648 82.6977 124.637 82.7662 124.612 82.8302C124.587 82.8943 124.549 82.9526 124.5 83.0011C124.451 83.0496 124.392 83.0875 124.327 83.1121C124.262 83.1367 124.193 83.1477 124.124 83.1441H120.29C120.22 83.1477 120.151 83.1367 120.086 83.1121C120.022 83.0875 119.963 83.0496 119.914 83.0011C119.865 82.9526 119.827 82.8943 119.802 82.8302C119.777 82.7662 119.766 82.6977 119.769 82.629V79.359C119.766 79.2904 119.777 79.2218 119.802 79.1577C119.827 79.0937 119.865 79.0355 119.914 78.9869C119.963 78.9384 120.022 78.9006 120.086 78.8759C120.151 78.8513 120.22 78.8404 120.29 78.8439H124.082C124.152 78.8404 124.221 78.8513 124.286 78.8759C124.35 78.9006 124.409 78.9384 124.458 78.9869C124.507 79.0355 124.546 79.0937 124.571 79.1577C124.596 79.2218 124.607 79.2904 124.603 79.359V82.629H124.644ZM126.71 69.6303C126.712 69.7093 126.698 69.7879 126.669 69.8613C126.639 69.9347 126.595 70.0015 126.538 70.0574C126.482 70.1132 126.415 70.1571 126.34 70.1863C126.266 70.2155 126.187 70.2293 126.107 70.2271H122.174C122.094 70.2293 122.014 70.2155 121.94 70.1863C121.866 70.1571 121.799 70.1132 121.742 70.0574C121.686 70.0015 121.641 69.9347 121.612 69.8613C121.582 69.7879 121.568 69.7093 121.571 69.6303V58.4547C121.571 57.3428 121.571 55.1845 131.395 55.1845C131.475 55.1823 131.554 55.1961 131.629 55.2253C131.703 55.2546 131.77 55.2984 131.827 55.3543C131.883 55.4101 131.927 55.4769 131.957 55.5503C131.986 55.6237 132 55.7023 131.998 55.7813V57.1058C132 57.1847 131.986 57.2632 131.957 57.3368C131.927 57.4102 131.883 57.4768 131.827 57.5328C131.77 57.5886 131.703 57.6325 131.629 57.6616C131.554 57.6909 131.475 57.7048 131.395 57.7025C126.652 57.7025 126.652 58.8144 126.652 59.2803V69.6385L126.71 69.6303ZM179.063 82.204C179.06 82.4527 178.96 82.6905 178.782 82.8664C178.604 83.0422 178.365 83.142 178.113 83.1441H127.71C127.458 83.142 127.218 83.0422 127.04 82.8664C126.863 82.6905 126.762 82.4527 126.76 82.204V79.8168C126.762 79.5681 126.863 79.3302 127.04 79.1544C127.218 78.9784 127.458 78.8788 127.71 78.8765H178.113C178.365 78.8788 178.604 78.9784 178.782 79.1544C178.96 79.3302 179.06 79.5681 179.063 79.8168V82.204ZM179.104 62.4197C179.104 62.7471 178.973 63.0611 178.739 63.2926C178.505 63.5241 178.187 63.6542 177.857 63.6542H171.569C170.581 63.6456 169.605 63.4447 168.696 63.0628C167.788 62.6811 166.963 62.1259 166.271 61.4289C165.579 60.7321 165.033 59.9071 164.663 59.0012C164.292 58.0952 164.107 57.1262 164.115 56.1492C164.124 55.1722 164.328 54.2065 164.713 53.3072C165.099 52.4079 165.66 51.5925 166.365 50.9078C167.068 50.223 167.903 49.6822 168.818 49.3163C169.733 48.9504 170.713 48.7664 171.701 48.7751H177.865C178.031 48.7772 178.197 48.8119 178.35 48.8773C178.502 48.9426 178.641 49.0373 178.757 49.1558C178.872 49.2743 178.964 49.4144 179.025 49.568C179.087 49.7216 179.116 49.8855 179.113 50.0504C179.101 50.3816 178.961 50.6955 178.72 50.9259C178.48 51.1563 178.158 51.2851 177.824 51.2848H171.577C170.302 51.2957 169.079 51.7871 168.158 52.6591C167.236 53.5311 166.686 54.7179 166.619 55.9776C166.588 56.656 166.697 57.3337 166.937 57.9696C167.179 58.6053 167.548 59.186 168.025 59.6761C168.499 60.1662 169.071 60.5556 169.703 60.8206C170.334 61.0857 171.015 61.2209 171.701 61.2178H176.312C176.352 61.219 176.393 61.212 176.43 61.1971C176.468 61.1823 176.501 61.1602 176.53 61.1318C176.559 61.1035 176.582 61.0697 176.596 61.0325C176.611 60.9953 176.619 60.9554 176.617 60.9154V57.8252C176.619 57.7852 176.611 57.7453 176.596 57.7081C176.582 57.6709 176.559 57.6371 176.53 57.6087C176.501 57.5804 176.468 57.5581 176.43 57.5434C176.393 57.5286 176.352 57.5216 176.312 57.5226H174.114C173.947 57.5205 173.782 57.4858 173.63 57.4205C173.476 57.3551 173.337 57.2605 173.221 57.1419C173.106 57.0234 173.015 56.8832 172.954 56.7297C172.892 56.5762 172.863 56.4122 172.865 56.2474C172.877 55.9162 173.017 55.6022 173.258 55.3718C173.499 55.1413 173.82 55.0126 174.155 55.0128H177.857C178.187 55.0128 178.505 55.1429 178.739 55.3743C178.973 55.6059 179.104 55.9199 179.104 56.2474V62.4279V62.4197ZM196.596 62.3788C196.602 62.5999 196.549 62.8183 196.443 63.0132C196.337 63.2079 196.182 63.3723 195.993 63.4906C195.799 63.6062 195.575 63.6658 195.349 63.6623C195.179 63.6634 195.011 63.6299 194.854 63.5637C194.697 63.4976 194.557 63.4005 194.441 63.2781L184.525 53.4677C184.491 53.4374 184.45 53.4172 184.405 53.4099C184.36 53.4026 184.315 53.4086 184.274 53.4268C184.232 53.4452 184.197 53.475 184.172 53.5127C184.148 53.5506 184.135 53.5946 184.136 53.6393V62.4197C184.139 62.585 184.109 62.7493 184.048 62.9031C183.986 63.0569 183.894 63.197 183.778 63.316C183.661 63.4348 183.523 63.5297 183.371 63.5954C183.217 63.6612 183.052 63.6964 182.885 63.6992C182.717 63.7018 182.552 63.6719 182.396 63.6111C182.241 63.5503 182.098 63.4599 181.979 63.3448C181.859 63.2298 181.762 63.0925 181.696 62.9408C181.63 62.789 181.594 62.6259 181.592 62.4606V50.0586C181.589 49.8446 181.643 49.6338 181.749 49.4471C181.855 49.2606 182.008 49.105 182.195 48.9958C182.437 48.8521 182.72 48.7911 183 48.8221C183.281 48.8531 183.544 48.9744 183.747 49.1674L193.746 59.0596C193.779 59.09 193.82 59.1101 193.865 59.1173C193.91 59.1247 193.956 59.1188 193.997 59.1006C194.038 59.0822 194.074 59.0524 194.098 59.0145C194.122 58.9767 194.135 58.9328 194.134 58.8879V50.0586C194.111 49.8862 194.126 49.7109 194.176 49.5442C194.226 49.3774 194.312 49.2233 194.426 49.0915C194.541 48.9598 194.683 48.8535 194.843 48.7797C195.001 48.7061 195.175 48.6664 195.35 48.6634C195.526 48.6605 195.701 48.6945 195.862 48.763C196.024 48.8315 196.169 48.933 196.288 49.0608C196.407 49.1887 196.498 49.34 196.554 49.5049C196.61 49.6698 196.631 49.8446 196.614 50.0178L196.596 62.3788Z" fill="#FFD100"/>
<path id="Vector_4" d="M131.42 57.686C131.5 57.6882 131.579 57.6743 131.654 57.6452C131.728 57.616 131.795 57.572 131.852 57.5162C131.908 57.4604 131.952 57.3937 131.982 57.3202C132.011 57.2468 132.025 57.1681 132.023 57.0892V55.7648C132.025 55.6858 132.011 55.6072 131.982 55.5338C131.952 55.4603 131.908 55.3936 131.852 55.3378C131.795 55.2818 131.728 55.238 131.654 55.2089C131.579 55.1797 131.5 55.1657 131.42 55.1679C121.596 55.1679 121.596 57.3426 121.596 58.4381V69.6056C121.593 69.6846 121.607 69.7632 121.637 69.8367C121.666 69.9101 121.711 69.9767 121.767 70.0326C121.824 70.0885 121.891 70.1324 121.965 70.1615C122.039 70.1907 122.119 70.2047 122.199 70.2025H126.124C126.203 70.2047 126.283 70.1907 126.357 70.1615C126.431 70.1324 126.499 70.0885 126.555 70.0326C126.612 69.9767 126.656 69.9101 126.685 69.8367C126.715 69.7632 126.729 69.6846 126.727 69.6056V59.2639C126.686 58.7978 126.685 57.686 131.42 57.686ZM92.9402 67.2756V58.4545C92.9402 57.3426 92.9403 55.1843 83.1159 55.1843C73.6384 55.1843 73.6384 57.359 73.6384 58.4545V59.2719C73.6361 59.351 73.6502 59.4295 73.6796 59.5031C73.7091 59.5765 73.7536 59.6431 73.81 59.699C73.8665 59.7549 73.9338 59.7988 74.008 59.8279C74.0822 59.8572 74.1617 59.8711 74.2416 59.8688H78.1664C78.2462 59.8711 78.3257 59.8572 78.3999 59.8279C78.4741 59.7988 78.5416 59.7549 78.5981 59.699C78.6545 59.6431 78.6988 59.5765 78.7283 59.5031C78.7578 59.4295 78.7718 59.351 78.7696 59.2719C78.7696 58.806 78.7696 57.6941 83.1655 57.6941C87.9082 57.6941 87.9082 58.806 87.9082 59.2719V61.6592C86.332 61.5082 84.749 61.4371 83.1655 61.4466C73.3409 61.4466 73.3409 63.6212 73.3409 64.7168V67.2756C73.3409 68.3875 73.3409 70.5458 83.1655 70.5458C92.9898 70.5458 92.9486 68.3875 92.9486 67.2756H92.9402ZM87.809 66.4582C87.809 66.9241 87.809 68.0359 83.0663 68.0359C78.3234 68.0359 78.3234 66.9241 78.3234 66.4582V65.5588C78.3234 65.0929 78.3234 63.9238 83.0663 63.9238C87.809 63.9238 87.809 65.0356 87.809 65.5588V66.4582ZM117.068 67.2756V58.4545C117.068 57.3426 117.068 55.1843 107.243 55.1843C105.66 55.1748 104.077 55.2458 102.5 55.3969V49.4698C102.503 49.3908 102.488 49.3121 102.459 49.2388C102.43 49.1654 102.385 49.0987 102.329 49.0427C102.272 48.9869 102.205 48.9431 102.131 48.9138C102.056 48.8846 101.977 48.8707 101.897 48.873H97.9723C97.8924 48.8707 97.813 48.8846 97.7388 48.9138C97.6645 48.9431 97.5972 48.9869 97.5407 49.0427C97.4842 49.0987 97.4398 49.1654 97.4103 49.2388C97.3808 49.3121 97.3668 49.3908 97.3692 49.4698V67.2511C97.3692 68.3629 97.369 70.5212 107.194 70.5212C117.018 70.5212 117.076 68.3467 117.076 67.2347L117.068 67.2756ZM102.55 66.4582V59.2965C102.55 58.8305 102.55 57.7187 107.293 57.7187C112.036 57.7187 112.036 58.8305 112.036 59.2965V66.4582C112.036 66.9241 112.036 68.0359 107.293 68.0359C102.55 68.0359 102.558 66.8996 102.558 66.4254L102.55 66.4582ZM143.484 70.5948C153.308 70.5948 153.308 68.4202 153.308 67.3247V58.4545C153.308 57.3426 153.308 55.1843 143.484 55.1843C134.007 55.1843 134.007 57.359 134.007 58.4545V59.2719C134.004 59.351 134.018 59.4295 134.048 59.5031C134.077 59.5765 134.122 59.6431 134.178 59.699C134.234 59.7549 134.301 59.7988 134.376 59.8279C134.45 59.8572 134.529 59.8711 134.61 59.8688H138.534C138.614 59.8711 138.694 59.8572 138.768 59.8279C138.842 59.7988 138.909 59.7549 138.966 59.699C139.022 59.6431 139.067 59.5765 139.096 59.5031C139.126 59.4295 139.139 59.351 139.137 59.2719C139.137 58.806 139.137 57.6941 143.492 57.6941C148.235 57.6941 148.235 58.806 148.235 59.2719V61.6592C146.658 61.5082 145.075 61.4371 143.492 61.4466C133.668 61.4466 133.668 63.6212 133.668 64.7168V67.2756C133.618 68.3875 133.618 70.5622 143.492 70.5622L143.484 70.5948ZM138.741 65.567C138.741 65.1011 138.741 63.9319 143.484 63.9319C148.227 63.9319 148.227 65.0438 148.227 65.567V66.4663C148.227 66.9323 148.227 68.0441 143.484 68.0441C138.741 68.0441 138.741 66.9323 138.741 66.4663V65.567ZM68.3338 48.9385H64.4089C64.329 48.9361 64.2496 48.9501 64.1754 48.9792C64.1011 49.0084 64.0338 49.0524 63.9773 49.1082C63.9209 49.164 63.8765 49.2307 63.8469 49.3041C63.8174 49.3776 63.8034 49.4562 63.8057 49.5352V66.4989C63.8057 66.965 63.8057 68.0769 59.0629 68.0769C54.5349 68.0769 54.3696 67.0549 54.3201 66.5399V65.7714C54.3224 65.6924 54.3083 65.6137 54.2787 65.5404C54.2492 65.467 54.2049 65.4002 54.1484 65.3443C54.092 65.2885 54.0245 65.2447 53.9503 65.2154C53.8761 65.1862 53.7966 65.1723 53.7169 65.1746H49.792C49.7122 65.1723 49.6327 65.1862 49.5586 65.2154C49.4844 65.2447 49.4169 65.2885 49.3604 65.3443C49.304 65.4002 49.2597 65.467 49.2302 65.5404C49.2007 65.6137 49.1866 65.6924 49.1889 65.7714V67.2674C49.1889 68.3793 49.1889 70.5376 59.0133 70.5376C68.8377 70.5376 68.8378 68.3629 68.8378 67.2674V49.4616C68.9865 49.1592 68.689 48.9057 68.342 48.9057L68.3338 48.9385ZM51.114 78.8355H49.6515C49.6058 78.8345 49.56 78.8425 49.5174 78.8594C49.4748 78.8763 49.4361 78.9015 49.4037 78.9336C49.3713 78.9657 49.3457 79.0041 49.3287 79.0462C49.3116 79.0883 49.3034 79.1335 49.3045 79.1789V82.7598C49.3034 82.805 49.3116 82.8502 49.3287 82.8924C49.3457 82.9345 49.3713 82.9729 49.4037 83.005C49.4361 83.0371 49.4748 83.0624 49.5174 83.0792C49.56 83.0961 49.6058 83.1041 49.6515 83.1031H51.114C51.1599 83.1041 51.2056 83.0961 51.2481 83.0792C51.2909 83.0624 51.3296 83.0371 51.362 83.005C51.3944 82.9729 51.42 82.9345 51.437 82.8924C51.4541 82.8502 51.4623 82.805 51.4611 82.7598V79.1789C51.4941 78.9991 51.3206 78.8355 51.114 78.8355ZM58.4431 78.8355H56.7906C56.7396 78.8355 56.6891 78.8454 56.642 78.8648C56.5948 78.8841 56.5521 78.9124 56.516 78.9481C56.48 78.9838 56.4513 79.0261 56.4319 79.0727C56.4123 79.1193 56.4022 79.1694 56.4022 79.2198V82.7598C56.4022 82.8617 56.4432 82.9593 56.516 83.0314C56.5889 83.1035 56.6877 83.144 56.7906 83.144H58.4431C58.5462 83.144 58.6449 83.1035 58.7178 83.0314C58.7906 82.9593 58.8316 82.8617 58.8316 82.7598V79.2198C58.8177 79.1214 58.7711 79.0304 58.6994 78.9608C58.6276 78.8912 58.5346 78.8473 58.4349 78.8355H58.4431ZM65.7227 78.8355H63.7809C63.7299 78.8355 63.6795 78.8454 63.6323 78.8648C63.5852 78.8841 63.5423 78.9124 63.5064 78.9481C63.4702 78.9838 63.4417 79.0261 63.4221 79.0727C63.4027 79.1193 63.3926 79.1694 63.3926 79.2198V82.7188C63.3926 82.7693 63.4027 82.8193 63.4221 82.8659C63.4417 82.9125 63.4702 82.9549 63.5064 82.9905C63.5423 83.0263 63.5852 83.0545 63.6323 83.0738C63.6795 83.0931 63.7299 83.1031 63.7809 83.1031H65.7227C65.7737 83.1031 65.8242 83.0931 65.8713 83.0738C65.9183 83.0545 65.9612 83.0263 65.9973 82.9905C66.0333 82.9549 66.062 82.9125 66.0814 82.8659C66.101 82.8193 66.111 82.7693 66.111 82.7188V79.2198C66.111 79.1687 66.1007 79.118 66.0806 79.0709C66.0607 79.0236 66.0313 78.981 65.9944 78.9452C65.9575 78.9093 65.9136 78.8812 65.8656 78.8625C65.8174 78.8436 65.7661 78.8345 65.7144 78.8355H65.7227ZM73.0022 78.8355H70.8456C70.7946 78.8355 70.744 78.8454 70.697 78.8648C70.6499 78.8841 70.607 78.9124 70.5711 78.9481C70.5349 78.9838 70.5064 79.0261 70.4868 79.0727C70.4672 79.1193 70.4573 79.1694 70.4573 79.2198V82.7188C70.4573 82.8207 70.4982 82.9184 70.5711 82.9905C70.6438 83.0626 70.7426 83.1031 70.8456 83.1031H73.0022C73.1051 83.1031 73.2039 83.0626 73.2768 82.9905C73.3497 82.9184 73.3905 82.8207 73.3905 82.7188V79.2198C73.4236 78.9991 73.2088 78.8355 72.9939 78.8355H73.0022ZM80.3313 78.8355H77.9185C77.8046 78.8355 77.6953 78.8803 77.6147 78.96C77.5342 79.0397 77.4889 79.148 77.4889 79.2607V82.7107C77.4889 82.8234 77.5342 82.9315 77.6147 83.0112C77.6953 83.0909 77.8046 83.1358 77.9185 83.1358H80.3313C80.4452 83.1358 80.5545 83.0909 80.6351 83.0112C80.7156 82.9315 80.7609 82.8234 80.7609 82.7107V79.2607C80.7454 79.1521 80.6941 79.0515 80.6149 78.9747C80.5356 78.8977 80.4331 78.8489 80.323 78.8355H80.3313ZM87.6108 78.8355H84.9914C84.8775 78.8355 84.7682 78.8803 84.6876 78.96C84.6071 79.0397 84.5618 79.148 84.5618 79.2607V82.6697C84.5618 82.7826 84.6071 82.8907 84.6876 82.9704C84.7682 83.0502 84.8775 83.0949 84.9914 83.0949H87.619C87.733 83.0949 87.8422 83.0502 87.9229 82.9704C88.0035 82.8907 88.0487 82.7826 88.0487 82.6697V79.2607C88.0406 79.1477 87.9905 79.0418 87.9081 78.9633C87.8257 78.8849 87.7169 78.8394 87.6025 78.8355H87.6108ZM94.8903 78.8355H92.0065C91.8823 78.8376 91.7637 78.8874 91.6759 78.9744C91.5881 79.0613 91.5377 79.1786 91.5355 79.3015V82.6697C91.5377 82.7928 91.5881 82.91 91.6759 82.997C91.7637 83.0839 91.8823 83.1337 92.0065 83.1358H94.9068C95.031 83.1337 95.1496 83.0839 95.2374 82.997C95.3254 82.91 95.3757 82.7928 95.3778 82.6697V79.3015C95.3757 79.1786 95.3254 79.0613 95.2374 78.9744C95.1496 78.8874 95.031 78.8376 94.9068 78.8355H94.8903ZM102.17 78.8355H99.0381C98.914 78.8376 98.7953 78.8874 98.7075 78.9744C98.6197 79.0613 98.5693 79.1786 98.5672 79.3015V82.6697C98.5693 82.7928 98.6197 82.91 98.7075 82.997C98.7953 83.0839 98.914 83.1337 99.0381 83.1358H102.137C102.261 83.1337 102.38 83.0839 102.467 82.997C102.555 82.91 102.606 82.7928 102.608 82.6697V79.3015C102.61 79.2425 102.6 79.1836 102.579 79.1282C102.559 79.0727 102.527 79.022 102.486 78.9788C102.446 78.9355 102.397 78.9005 102.342 78.8759C102.288 78.8514 102.23 78.8376 102.17 78.8355ZM109.499 78.8355H106.136C106.012 78.8376 105.893 78.8874 105.805 78.9744C105.717 79.0613 105.667 79.1786 105.665 79.3015V82.6289C105.667 82.7518 105.717 82.8692 105.805 82.956C105.893 83.043 106.012 83.0928 106.136 83.0949H109.499C109.623 83.0928 109.742 83.043 109.83 82.956C109.917 82.8692 109.968 82.7518 109.97 82.6289V79.3015C109.968 79.1771 109.916 79.0587 109.827 78.9715C109.737 78.8844 109.616 78.8355 109.491 78.8355H109.499ZM116.778 78.8355H113.201C113.131 78.8321 113.062 78.8429 112.997 78.8676C112.933 78.8922 112.874 78.93 112.825 78.9786C112.776 79.0271 112.737 79.0853 112.712 79.1494C112.687 79.2134 112.676 79.282 112.68 79.3506V82.6208C112.676 82.6893 112.687 82.7578 112.712 82.8219C112.737 82.8859 112.776 82.9442 112.825 82.9927C112.874 83.0413 112.933 83.0791 112.997 83.1038C113.062 83.1284 113.131 83.1393 113.201 83.1358H116.778C116.848 83.1393 116.917 83.1284 116.982 83.1038C117.047 83.0791 117.105 83.0413 117.154 82.9927C117.203 82.9442 117.242 82.8859 117.267 82.8219C117.291 82.7578 117.302 82.6893 117.299 82.6208V79.3506C117.299 79.2822 117.285 79.2146 117.259 79.1515C117.232 79.0886 117.193 79.0314 117.143 78.9835C117.094 78.9356 117.036 78.8978 116.972 78.8724C116.908 78.847 116.839 78.8345 116.77 78.8355H116.778ZM124.058 78.8355H120.265C120.196 78.8321 120.127 78.8429 120.062 78.8676C119.997 78.8922 119.938 78.93 119.889 78.9786C119.84 79.0271 119.802 79.0853 119.777 79.1494C119.752 79.2134 119.741 79.282 119.745 79.3506V82.6208C119.741 82.6893 119.752 82.7578 119.777 82.8219C119.802 82.8859 119.84 82.9442 119.889 82.9927C119.938 83.0413 119.997 83.0791 120.062 83.1038C120.127 83.1284 120.196 83.1393 120.265 83.1358H124.058C124.127 83.1393 124.196 83.1284 124.261 83.1038C124.326 83.0791 124.385 83.0413 124.434 82.9927C124.483 82.9442 124.521 82.8859 124.546 82.8219C124.571 82.7578 124.582 82.6893 124.578 82.6208V79.3506C124.582 79.282 124.571 79.2134 124.546 79.1494C124.521 79.0853 124.483 79.0271 124.434 78.9786C124.385 78.93 124.326 78.8922 124.261 78.8676C124.196 78.8429 124.127 78.8321 124.058 78.8355ZM178.088 78.8355H127.685C127.434 78.8376 127.194 78.9374 127.016 79.1133C126.838 79.2891 126.737 79.5271 126.735 79.7758V82.1628C126.737 82.4115 126.838 82.6495 127.016 82.8254C127.194 83.0012 127.434 83.101 127.685 83.1031H178.088C178.339 83.101 178.58 83.0012 178.757 82.8254C178.936 82.6495 179.036 82.4115 179.038 82.1628V79.7758C179.036 79.5271 178.936 79.2891 178.757 79.1133C178.58 78.9374 178.339 78.8376 178.088 78.8355ZM195.324 48.7831C194.995 48.7959 194.683 48.9369 194.456 49.1757C194.23 49.4143 194.109 49.7315 194.118 50.0585V58.8387C194.119 58.8835 194.106 58.9276 194.082 58.9653C194.057 59.0031 194.023 59.033 193.982 59.0512C193.939 59.0696 193.894 59.0754 193.849 59.0681C193.804 59.0609 193.763 59.0408 193.729 59.0104L183.691 49.2001C183.486 49.007 183.224 48.8857 182.943 48.8546C182.663 48.8236 182.379 48.8846 182.137 49.0283C181.951 49.1374 181.797 49.2931 181.691 49.4797C181.585 49.6663 181.531 49.8771 181.533 50.0911V62.4522C181.536 62.6172 181.57 62.7801 181.637 62.9315C181.703 63.083 181.799 63.2201 181.918 63.3349C182.039 63.4496 182.18 63.5398 182.335 63.6001C182.49 63.6605 182.656 63.69 182.823 63.6867C183.158 63.6761 183.475 63.537 183.708 63.299C183.941 63.061 184.07 62.7426 184.07 62.4113V53.5983C184.07 53.5536 184.082 53.5095 184.107 53.4717C184.131 53.434 184.165 53.404 184.208 53.3858C184.249 53.3675 184.295 53.3616 184.339 53.3689C184.384 53.3762 184.426 53.3962 184.459 53.4266L194.456 63.3188C194.574 63.4412 194.714 63.5383 194.87 63.6044C195.028 63.6706 195.196 63.7041 195.365 63.703C195.592 63.7065 195.816 63.6469 196.01 63.5313C196.202 63.4169 196.36 63.2531 196.467 63.0574C196.573 62.8618 196.623 62.6414 196.614 62.4195V50.0094C196.596 49.6803 196.455 49.3697 196.215 49.1405C195.976 48.9114 195.657 48.7807 195.324 48.7749V48.7831ZM177.791 55.0045H174.089C173.922 55.0017 173.755 55.0317 173.601 55.0926C173.445 55.1533 173.303 55.2438 173.183 55.3588C172.941 55.591 172.802 55.9091 172.796 56.2431C172.79 56.5769 172.919 56.8994 173.154 57.1392C173.389 57.3792 173.71 57.5171 174.048 57.5225H176.246C176.285 57.5214 176.326 57.5284 176.363 57.5433C176.402 57.5581 176.436 57.5802 176.464 57.6086C176.493 57.6369 176.516 57.6707 176.53 57.7079C176.545 57.7451 176.553 57.785 176.551 57.825V60.9398C176.553 60.9798 176.545 61.0196 176.53 61.0568C176.516 61.0941 176.493 61.1279 176.464 61.1562C176.436 61.1845 176.402 61.2067 176.363 61.2216C176.326 61.2364 176.285 61.2434 176.246 61.2423H171.635C170.959 61.2744 170.284 61.171 169.65 60.9386C169.015 60.7061 168.435 60.3493 167.943 59.8894C167.452 59.4295 167.059 58.8762 166.788 58.2627C166.518 57.649 166.377 56.9875 166.37 56.3183C166.365 55.6489 166.496 54.9854 166.756 54.3673C167.015 53.7495 167.399 53.1898 167.883 52.722C168.367 52.2543 168.941 51.888 169.572 51.6452C170.203 51.4025 170.876 51.2882 171.552 51.3092H177.757C178.095 51.3147 178.421 51.1872 178.663 50.9549C178.905 50.7227 179.046 50.4046 179.051 50.0707C179.056 49.7368 178.928 49.4144 178.693 49.1745C178.458 48.9345 178.137 48.7967 177.798 48.7913H171.635C169.692 48.7915 167.822 49.5235 166.406 50.8386C164.989 52.1536 164.132 53.953 164.008 55.8711C163.958 56.8761 164.115 57.8808 164.468 58.8242C164.823 59.7676 165.366 60.6301 166.067 61.3594C166.767 62.0887 167.611 62.6695 168.544 63.0668C169.479 63.464 170.486 63.6694 171.503 63.6703H177.75C178.08 63.6703 178.398 63.5403 178.632 63.3088C178.866 63.0772 178.997 62.7632 178.997 62.4358V56.2553C179.015 56.0915 178.998 55.9257 178.944 55.7696C178.891 55.6134 178.804 55.4707 178.689 55.3515C178.574 55.2322 178.433 55.1394 178.279 55.0795C178.124 55.0196 177.957 54.994 177.791 55.0045Z" fill="#212721"/>
</g>
</g>
</g>
</g>
</svg>
