<svg width="244" height="131" viewBox="0 0 244 131" fill="none" xmlns="http://www.w3.org/2000/svg">
<g id="cisco">
<path id="Vector" d="M200.189 50.6836C200.189 48.8318 198.679 47.3306 196.824 47.3306C194.965 47.3306 193.454 48.8318 193.454 50.6836V57.7365C193.454 59.5984 194.965 61.1002 196.824 61.1002C198.679 61.1002 200.189 59.5984 200.189 57.7365V50.6836ZM181.676 41.4266C181.676 39.5756 180.17 38.0715 178.27 38.0715C176.409 38.0715 174.903 39.5756 174.903 41.4266V57.7365C174.903 59.5984 176.409 61.1002 178.27 61.1002C180.17 61.1002 181.676 59.5984 181.676 57.7365V41.4266ZM163.126 28.7623C163.126 26.9105 161.62 25.4087 159.761 25.4087C157.902 25.4087 156.396 26.9105 156.396 28.7623V64.4387C156.396 66.3013 157.902 67.8024 159.761 67.8024C161.62 67.8024 163.126 66.3013 163.126 64.4387V28.7623ZM144.571 41.4266C144.571 39.5756 143.065 38.0715 141.206 38.0715C139.352 38.0715 137.84 39.5756 137.84 41.4266V57.7365C137.84 59.5984 139.352 61.1002 141.206 61.1002C143.065 61.1002 144.571 59.5984 144.571 57.7365V41.4266ZM126.02 50.6836C126.02 48.8318 124.515 47.3306 122.666 47.3306C120.807 47.3306 119.291 48.8318 119.291 50.6836V57.7365C119.291 59.5984 120.807 61.1002 122.666 61.1002C124.515 61.1002 126.02 59.5984 126.02 57.7365V50.6836ZM107.5 41.4266C107.5 39.5756 105.983 38.0715 104.125 38.0715C102.265 38.0715 100.748 39.5756 100.748 41.4266V57.7365C100.748 59.5984 102.265 61.1002 104.125 61.1002C105.983 61.1002 107.5 59.5984 107.5 57.7365V41.4266ZM88.9581 28.7623C88.9581 26.9105 87.4412 25.4087 85.5818 25.4087C83.7231 25.4087 82.2062 26.9105 82.2062 28.7623V64.4387C82.2062 66.3013 83.7231 67.8024 85.5818 67.8024C87.4412 67.8024 88.9581 66.3013 88.9581 64.4387V28.7623ZM70.4154 41.4266C70.4154 39.5756 68.8992 38.0715 67.0398 38.0715C65.1804 38.0715 63.6642 39.5756 63.6642 41.4266V57.7365C63.6642 59.5984 65.1804 61.1002 67.0398 61.1002C68.8992 61.1002 70.4154 59.5984 70.4154 57.7365V41.4266ZM51.8735 50.6836C51.8735 48.8318 50.3573 47.3306 48.4979 47.3306C46.6406 47.3306 45.1223 48.8318 45.1223 50.6836V57.7365C45.1223 59.5984 46.6406 61.1002 48.4979 61.1002C50.3573 61.1002 51.8735 59.5984 51.8735 57.7365V50.6836ZM121.564 79.9283C121.362 79.8731 118.247 79.0722 114.937 79.0722C108.669 79.0722 104.896 82.4466 104.896 87.4716C104.896 91.9198 108.053 94.138 111.841 95.3313C112.261 95.4695 112.88 95.6627 113.292 95.7987C114.978 96.3276 116.325 97.1136 116.325 98.4751C116.325 99.9977 114.769 100.983 111.387 100.983C108.415 100.983 105.565 100.136 104.965 99.9848V106.167C105.3 106.238 108.686 106.901 112.303 106.901C117.507 106.901 123.459 104.634 123.459 97.8854C123.459 94.6119 121.449 91.5983 117.036 90.1996L115.16 89.6041C114.041 89.2518 112.043 88.6813 112.043 87.0456C112.043 85.7536 113.523 84.8438 116.249 84.8438C118.601 84.8438 121.463 85.6319 121.564 85.6635V79.9283ZM179.026 92.987C179.026 96.896 176.024 100.059 171.994 100.059C167.96 100.059 164.965 96.896 164.965 92.987C164.965 89.0858 167.96 85.9218 171.994 85.9218C176.024 85.9218 179.026 89.0858 179.026 92.987ZM171.994 79.0808C163.706 79.0808 157.763 85.3134 157.763 92.987C157.763 100.673 163.706 106.901 171.994 106.901C180.281 106.901 186.232 100.673 186.232 92.987C186.232 85.3134 180.281 79.0808 171.994 79.0808ZM79.6318 80.0436C78.9929 79.8545 76.6309 79.0808 73.4321 79.0808C65.1574 79.0808 59.0833 84.9634 59.0833 92.987C59.0833 101.643 65.7886 106.901 73.4321 106.901C76.4687 106.901 78.7868 106.184 79.6318 105.945V98.7328C79.3396 98.8946 77.117 100.159 73.9195 100.159C69.3895 100.159 66.4677 96.9798 66.4677 92.987C66.4677 88.8724 69.5159 85.8209 73.9195 85.8209C77.1716 85.8209 79.3582 87.113 79.6318 87.2554V80.0436ZM150.603 80.0436C149.959 79.8545 147.595 79.0808 144.407 79.0808C136.121 79.0808 130.046 84.9634 130.046 92.987C130.046 101.643 136.759 106.901 144.407 106.901C147.427 106.901 149.749 106.184 150.603 105.945V98.7328C150.305 98.8946 148.079 100.159 144.882 100.159C140.356 100.159 137.438 96.9798 137.438 92.987C137.438 88.8724 140.486 85.8209 144.882 85.8209C148.134 85.8209 150.326 87.113 150.603 87.2554V80.0436ZM95.7781 106.423H88.9781V79.5568H95.7781V106.423Z" fill="#049FD9"/>
</g>
</svg>
