<svg
   width="241"
   height="130"
   viewBox="0 0 241 130"
   fill="none"
   xmlns="http://www.w3.org/2000/svg"
>
   <g id="huawei">
      <g id="Clip path group">
         <mask
            id="mask0_289_63"
            style="mask-type:luminance"
            maskUnits="userSpaceOnUse"
            x="65"
            y="9"
            width="110"
            height="112"
         >
            <g id="clip0_1_296">
               <path
                  id="Vector"
                  d="M174.861 9H65V120.8H174.861V9Z"
                  fill="white"
               />
            </g>
         </mask>
         <g mask="url(#mask0_289_63)">
            <g id="Group">
               <path
                  id="Vector_2"
                  d="M98.7291 102.273V112.722C98.7291 115.69 97.2575 117.273 94.5836 117.273C91.8945 117.273 90.4141 115.644 90.4141 112.595V102.285H86.7147V112.722C86.7147 117.857 89.565 120.8 94.5348 120.8C99.5515 120.8 102.428 117.801 102.428 112.571V102.273H98.7291ZM112.34 102.273L104.305 120.515H108.081L109.632 116.983L109.743 116.718H118.09L119.727 120.515H123.606L115.646 102.381L115.575 102.273H112.34ZM134.336 102.273L130.196 114.825L126.166 102.283H122.229L128.584 120.527H131.648L135.796 108.542L139.941 120.527H143.031L149.37 102.283H145.534L141.496 114.825L137.354 102.273H134.336ZM170.538 102.273V120.5H174.189V102.273H170.538ZM65.8284 102.275V120.526H69.5289V113.113H77.8843V120.526H81.5857V102.275H77.8843V109.637H69.5289V102.275H65.8284ZM152.355 102.287V120.513H166.127V117.19H156.005V112.671H162.735V109.347H156.005V105.61H165.774V102.287H152.355ZM113.907 106.892L116.546 113.003H116.536L116.716 113.425H111.119L111.296 113.003H111.293L113.907 106.892Z"
                  fill="#232527"
               />
               <path
                  id="Vector_3"
                  d="M111.909 8.99983C110.441 9.12973 106.474 10.0331 106.474 10.0331H106.473C97.5326 12.3456 95.4195 20.4647 95.4195 20.4647C94.983 21.8299 94.7846 23.2291 94.7263 24.5473V26.3414C94.8449 29.1134 95.4609 31.1832 95.4609 31.1832C98.4472 44.4349 113.13 66.2091 116.286 70.7833C116.51 71.0055 116.689 70.9252 116.689 70.9252C117.03 70.8312 117.003 70.5042 117.003 70.5042L117.01 70.5059C121.87 21.8871 111.909 8.99983 111.909 8.99983ZM127.969 8.99983C127.969 8.99983 117.964 21.8938 122.828 70.541H122.834C122.872 70.8498 123.091 70.914 123.091 70.914C123.417 71.0403 123.583 70.7274 123.583 70.7274L123.585 70.7304C126.822 66.0396 141.421 44.3837 144.395 31.183C144.395 31.183 146.007 24.7937 144.45 20.4644C144.45 20.4644 142.24 12.2197 133.288 10.041C133.288 10.041 130.709 9.38593 127.969 8.99983ZM81.8198 23.5952C81.8198 23.5952 73.3015 31.6863 72.8781 40.264H72.8814V41.5637C72.888 41.6615 72.8929 41.7605 72.899 41.8602C73.2659 48.777 78.4655 52.8706 78.4655 52.8706C86.843 61.0416 107.128 71.3578 111.842 73.6985C111.908 73.7232 112.151 73.8029 112.295 73.622C112.295 73.622 112.369 73.5654 112.403 73.464V73.2486C112.399 73.2362 112.393 73.2239 112.387 73.2104H112.388C99.4798 44.9895 81.8198 23.5952 81.8198 23.5952ZM158.036 23.5952C158.036 23.5952 140.43 44.9226 127.528 73.0861L127.532 73.0845C127.532 73.0845 127.38 73.4111 127.626 73.622C127.626 73.622 127.7 73.6775 127.802 73.7001H127.98C128.012 73.6908 128.047 73.6785 128.081 73.6553V73.6583C132.922 71.2537 153.05 61.0053 161.389 52.872C161.389 52.872 166.668 48.6285 166.946 41.8153C167.555 32.3525 158.038 23.5949 158.038 23.5949L158.036 23.5952ZM173.884 51.6125C173.884 51.6125 145.179 67.0278 130.339 77.046L130.34 77.0476L130.344 77.0508C130.344 77.0508 130.074 77.2273 130.168 77.5436C130.168 77.5436 130.309 77.7987 130.514 77.7987V77.8004C135.83 77.8097 155.946 77.8323 156.45 77.7381C156.45 77.7381 159.052 77.6342 162.264 76.3985C162.264 76.3985 169.419 74.1219 173.136 65.9925C173.136 65.9925 174.836 62.5933 174.859 57.8177V57.6152C174.847 55.7735 174.588 53.7346 173.884 51.6125ZM65.9651 51.6843C63.3534 59.7753 66.8694 66.2948 66.875 66.3052C70.539 74.0528 77.5331 76.4003 77.5331 76.4003C80.762 77.7279 83.9919 77.8197 83.9919 77.8197C84.4962 77.9119 104.076 77.8289 109.322 77.8042C109.544 77.8025 109.666 77.5792 109.666 77.5792C109.682 77.5545 109.695 77.5298 109.702 77.5072V77.3049C109.658 77.1693 109.542 77.0737 109.542 77.0737L109.546 77.0722C94.7117 67.0571 65.9651 51.6843 65.9651 51.6843ZM108.723 80.2915L74.9562 81.4765C78.618 88.009 84.785 93.086 91.2093 91.5268C95.6427 90.4176 105.686 83.4068 109.002 81.0379L108.991 81.0286C109.249 80.7968 109.156 80.6109 109.156 80.6109C109.072 80.3074 108.723 80.3078 108.723 80.3078V80.2915ZM131.087 80.3163L131.084 80.3285C131.084 80.3285 130.788 80.3662 130.705 80.5884C130.705 80.5884 130.633 80.8921 130.832 81.043L130.829 81.046C134.062 83.366 143.863 90.2227 148.584 91.5541C148.584 91.5541 149.299 91.7975 150.497 91.8411H151.217C154.381 91.7299 159.891 90.1038 164.898 81.4941L131.087 80.3163Z"
                  fill="#CF0A2C"
               />
            </g>
         </g>
      </g>
   </g>
</svg>