<svg width="1121" height="1080" viewBox="0 0 1121 1080" fill="none" xmlns="http://www.w3.org/2000/svg">
<g opacity="0.4">
<path d="M559.756 404.997L194.019 194.4L218.209 306.429L218.369 306.903C222.2 318.206 230.385 327.827 240.767 333.713L240.797 333.73L541.933 507.205L541.993 507.239C547.803 510.462 554.884 511.821 561.465 511.821C568.045 511.821 575.127 510.462 580.931 507.239L580.991 507.205L880.341 334.844L880.368 334.828C890.753 328.942 898.94 319.321 902.766 308.017L902.928 307.543L927.094 195.627L559.756 404.997Z" fill="url(#paint0_linear_50_441)"/>
<path d="M239.462 405.171L263.94 515.711L264.093 516.162C267.922 527.459 276.099 537.074 286.471 542.959L433.329 628.511V810.286C433.329 821.372 439.341 831.519 448.946 837.032L448.984 837.054L529.747 882.371L529.676 595.679L529.661 595.42C528.667 578.567 518.56 564.246 504.298 556.913L239.462 405.171Z" fill="url(#paint1_linear_50_441)"/>
<path d="M857.145 515.989L856.994 516.441C853.167 527.738 844.986 537.354 834.611 543.24L834.563 543.267L687.761 628.787V810.567C687.761 821.653 681.746 831.8 672.142 837.313L672.104 837.329L591.344 882.646V595.944L591.36 595.685C592.357 578.799 602.554 564.505 616.787 557.194L881.623 405.449L857.145 515.989Z" fill="url(#paint2_linear_50_441)"/>
</g>
<defs>
<linearGradient id="paint0_linear_50_441" x1="815.514" y1="426.568" x2="207.193" y2="394.194" gradientUnits="userSpaceOnUse">
<stop stop-color="#E1E1E1"/>
<stop offset="1" stop-color="#21242C" stop-opacity="0.3"/>
</linearGradient>
<linearGradient id="paint1_linear_50_441" x1="789.481" y1="540.533" x2="287.416" y2="507.078" gradientUnits="userSpaceOnUse">
<stop stop-color="#E1E1E1" stop-opacity="0.3"/>
<stop offset="1" stop-color="#21242C"/>
</linearGradient>
<linearGradient id="paint2_linear_50_441" x1="883.865" y1="437.4" x2="439.22" y2="391.678" gradientUnits="userSpaceOnUse">
<stop stop-color="#E1E1E1"/>
<stop offset="1" stop-color="#21242C"/>
</linearGradient>
</defs>
</svg>
