<svg
   width="203"
   height="196"
   viewBox="0 0 203 196"
   fill="none"
   xmlns="http://www.w3.org/2000/svg"
>
   <g id="Icon_gray 1">
      <path
         id="Vector"
         d="M101.365 73.4995L35.1345 35.28L39.5149 55.6112L39.5439 55.6971C40.2376 57.7486 41.7199 59.4945 43.6 60.5627L43.6055 60.5658L98.1377 92.0483L98.1485 92.0544C99.2005 92.6394 100.483 92.886 101.675 92.886C102.866 92.886 104.149 92.6394 105.2 92.0544L105.211 92.0484L159.419 60.7679L159.424 60.765C161.305 59.6969 162.787 57.9508 163.48 55.8993L163.51 55.8134L167.886 35.5028L101.365 73.4995Z"
         fill="#A7B5BD"
      />
      <path
         id="Vector_2"
         d="M43.3638 73.531L47.7966 93.592L47.8243 93.6739C48.5175 95.724 49.9985 97.4689 51.8767 98.537L78.4709 114.063V147.052C78.4709 149.064 79.5596 150.905 81.299 151.906L81.3057 151.91L95.931 160.134L95.9182 108.105L95.9155 108.058C95.7354 104.999 93.9052 102.4 91.3226 101.069L43.3638 73.531Z"
         fill="#A7B5BD"
      />
      <path
         id="Vector_3"
         d="M155.219 93.6425L155.192 93.7245C154.499 95.7747 153.017 97.5198 151.138 98.588L151.13 98.5929L124.545 114.113V147.103C124.545 149.115 123.456 150.956 121.717 151.957L121.71 151.96L107.085 160.184V108.153L107.088 108.106C107.269 105.041 109.115 102.447 111.693 101.12L159.652 73.5815L155.219 93.6425Z"
         fill="#A7B5BD"
      />
   </g>
</svg>